<svg width="512" height="512" viewBox="0 0 512 512" fill="none" xmlns="http://www.w3.org/2000/svg">
  <defs>
    <linearGradient id="bg" x1="64" y1="48" x2="448" y2="480" gradientUnits="userSpaceOnUse">
      <stop stop-color="#0C2240" />
      <stop offset="1" stop-color="#10335F" />
    </linearGradient>
    <linearGradient id="truck" x1="148" y1="180" x2="382" y2="320" gradientUnits="userSpaceOnUse">
      <stop stop-color="#45A4FF" />
      <stop offset="1" stop-color="#1E6AD6" />
    </linearGradient>
    <linearGradient id="arrow" x1="300" y1="180" x2="420" y2="240" gradientUnits="userSpaceOnUse">
      <stop stop-color="#FF9F3C" />
      <stop offset="1" stop-color="#FF7A00" />
    </linearGradient>
    <linearGradient id="glow" x1="120" y1="420" x2="360" y2="470" gradientUnits="userSpaceOnUse">
      <stop stop-color="#5BD4FF" stop-opacity="0.18" />
      <stop offset="1" stop-color="#89E6FF" stop-opacity="0.04" />
    </linearGradient>
    <filter id="shadow" x="40" y="36" width="432" height="440" color-interpolation-filters="sRGB">
      <feDropShadow dx="0" dy="10" stdDeviation="18" flood-color="#061528" flood-opacity="0.55" />
    </filter>
  </defs>
  <rect x="48" y="36" width="416" height="440" rx="104" fill="url(#bg)" filter="url(#shadow)" />
  <rect x="70" y="58" width="372" height="396" rx="90" fill="#0B1C33" fill-opacity="0.35" />
  <path d="M256 98c-82.8 0-150 67.2-150 150s67.2 150 150 150 150-67.2 150-150S338.8 98 256 98Zm0 252c-56.6 0-102-45.4-102-102s45.4-102 102-102 102 45.4 102 102-45.4 102-102 102Z" fill="#152948" />
  <path d="M256 116c-72.8 0-132 59.2-132 132s59.2 132 132 132 132-59.2 132-132S328.8 116 256 116Zm0 224c-50.7 0-92-41.3-92-92s41.3-92 92-92 92 41.3 92 92-41.3 92-92 92Z" fill="#1F3D69" />
  <path d="M203 216c0-7.7 6.3-14 14-14h112c7.7 0 14 6.3 14 14v76c0 7.7-6.3 14-14 14h-13.5c-7.7 0-14 6.3-14 14v6h-69v-6c0-7.7-6.3-14-14-14H217c-7.7 0-14-6.3-14-14v-80Z" fill="url(#truck)" />
  <path d="M329 186h-99c-9.4 0-17 7.6-17 17v96c0 9.4 7.6 17 17 17h5.5c8.8 0 16 7.2 16 16v6H344v-6c0-8.8 7.2-16 16-16H368c9.4 0 17-7.6 17-17v-58.5c0-7.4-4.6-14-11.5-16.5l-29-10.7c-8.6-3.2-14.5-11.4-14.5-20.6 0-6.5-5.3-12-12-12Z" fill="url(#truck)" />
  <path d="M338 204c0 10.5 6.5 19.8 16.3 23.4l23.4 8.6c7.7 2.8 12.8 10.2 12.8 18.3v53.2c0 6.9-5.6 12.5-12.5 12.5h-21c-10.5 0-19 8.5-19 19v5H188v-15.5c0-4.1 3.3-7.5 7.5-7.5h31c8.8 0 16 7.2 16 16v7h26v-7c0-8.8 7.2-16 16-16h72c4.4 0 8-3.6 8-8v-36c0-8.3-5.2-15.7-13-18.5l-30.2-11.2C339.7 244.3 334 235.4 334 226v-14c0-4.4 3.6-8 8-8h5c6.6 0 12-5.4 12-12v-11c0-6.1-5-11-11-11h-22c-4.4 0-8 3.6-8 8v28Z" fill="#0D2646" fill-opacity="0.55" />
  <path d="M234 297h80v12h-80z" fill="#D8EBFF" />
  <path d="M230 260h18v16h-18zm88 0h34v18h-34zm-64 48h18v10h-18zm38 0h18v10h-18z" fill="#E6F3FF" />
  <circle cx="230" cy="322" r="30" fill="#0F1524" />
  <circle cx="230" cy="322" r="16" fill="#E6F3FF" />
  <circle cx="332" cy="322" r="30" fill="#0F1524" />
  <circle cx="332" cy="322" r="16" fill="#E6F3FF" />
  <path d="M266 204c-6.6 0-12 5.4-12 12v33c0 6.6 5.4 12 12 12h62c6.6 0 12-5.4 12-12v-16c0-13.3-10.7-24-24-24h-50Z" fill="#E6F3FF" />
  <path d="M390 207c12.7-12.2 20-29.1 20-46.8 0-7.1-0.9-13.9-2.6-20.4l34.8-20.8c2.9 10 4.4 20.7 4.4 31.6 0 30.5-12.6 58.1-32.9 78.2l-23.7-21.8Z" fill="#FF9F3C" />
  <path d="M360.4 185.6 384 162c16.7 16.4 26.9 38.9 26.9 63 0 16.8-4.7 32.6-12.9 46l-27.6-15.7c5.5-9 8.6-19.5 8.6-30.6 0-16.3-6.3-30.9-18.6-44.1Z" fill="#FFB35C" />
  <path d="M206 225c0-6.6 5.4-12 12-12h26c6.6 0 12 5.4 12 12v60c0 6.6-5.4 12-12 12h-26c-6.6 0-12-5.4-12-12v-60Z" fill="#144173" />
  <path d="M156 260c0-6.6 5.4-12 12-12h46c6.6 0 12 5.4 12 12v36c0 6.6-5.4 12-12 12h-46c-6.6 0-12-5.4-12-12v-36Z" fill="#0B2C52" />
  <path d="M147 344c18 18 42.7 29 69 29 26.3 0 51-11 69-29h-138Z" fill="#061225" />
  <path d="M306 336c-6.6 0-12 5.4-12 12v2h24v-2c0-6.6-5.4-12-12-12Z" fill="#0F2038" />
  <path d="M187 360h138c-11 14-26.3 24-44 28.5-5.8 1.4-11.9 2.1-18 2.1-33.8 0-63-21-76-51Z" fill="#07162B" />
  <path d="M268 186c0-6.6 5.4-12 12-12h70c3.6 0 7 1.6 9.2 4.4l18.5 22.9c2.3 2.9 3.6 6.5 3.6 10.2v16.5c0 7.2-5.8 13-13 13h-88c-6.6 0-12-5.4-12-12V186Z" fill="#0E2748" />
  <path d="M298 188c0-4.4 3.6-8 8-8h52c3.6 0 7 1.6 9.2 4.4l7.3 9c2.3 2.9 3.6 6.5 3.6 10.2v13.4c0 4.9-4 9-9 9h-71c-4.4 0-8-3.6-8-8V188Z" fill="#0B1C33" />
  <path d="M312 214c0-6.6 5.4-12 12-12h26c6.6 0 12 5.4 12 12v6c0 6.6-5.4 12-12 12h-26c-6.6 0-12-5.4-12-12v-6Z" fill="#1C4E88" />
  <path d="M154 232h90" stroke="#52B6FF" stroke-width="8" stroke-linecap="round" />
  <path d="M330 162 390 122c6.6-4.4 15.4-3.2 20.7 2.8l9.8 11c4.9 5.4 4.8 13.6-0.2 18.8l-53 54.6c-4.3 4.5-11 5.8-16.6 3.1l-21-10.4c-5.6-2.7-8.6-8.7-7.2-14.8l6.8-29c0.8-3.7 3.1-6.8 6.5-8.7Z" fill="#FF8C1F" />
  <path d="M272 164c-6.6 0-12 5.4-12 12v12c0 6.6 5.4 12 12 12h20c6.6 0 12-5.4 12-12v-12c0-6.6-5.4-12-12-12h-20Z" fill="#E6F3FF" />
  <path d="M264 174c0-4.4 3.6-8 8-8h12c4.4 0 8 3.6 8 8v4c0 4.4-3.6 8-8 8h-12c-4.4 0-8-3.6-8-8v-4Z" fill="#B3D9FF" />
  <path d="M220 168c-8.8 0-16 7.2-16 16v24c0 8.8 7.2 16 16 16h10c8.8 0 16-7.2 16-16v-24c0-8.8-7.2-16-16-16h-10Z" fill="#0C274F" />
  <path d="M132 292h28v14h-28z" fill="#0C274F" />
  <path d="M152 310h14v12h-14z" fill="#10335F" />
  <path d="M226 182h-12c-4.4 0-8 3.6-8 8v6c0 4.4 3.6 8 8 8h12c4.4 0 8-3.6 8-8v-6c0-4.4-3.6-8-8-8Z" fill="#10335F" />
  <path d="M224 240c-4.4 0-8 3.6-8 8v10c0 4.4 3.6 8 8 8h10c4.4 0 8-3.6 8-8v-10c0-4.4-3.6-8-8-8h-10Z" fill="#0A1C36" />
  <path d="M188 226c-4.4 0-8 3.6-8 8v16c0 4.4 3.6 8 8 8h12c4.4 0 8-3.6 8-8v-16c0-4.4-3.6-8-8-8h-12Z" fill="#0E2950" />
  <path d="M193 348c0 6.6 5.4 12 12 12h80c6.6 0 12-5.4 12-12v-4H193v4Z" fill="#0B1C33" />
  <rect x="120" y="420" width="272" height="26" rx="13" fill="url(#glow)" />
  <text x="50%" y="438" text-anchor="middle" fill="#EAF2FF" font-family="'Inter', 'Segoe UI', sans-serif" font-size="54" font-weight="800" letter-spacing="4">DODIX</text>
</svg>
